<svg class="animated" id="freepik_stories-seminar" xmlns="http://www.w3.org/2000/svg" viewBox="0 0 500 500" version="1.1" xmlns:xlink="http://www.w3.org/1999/xlink" xmlns:svgjs="http://svgjs.com/svgjs"><style>svg#freepik_stories-seminar:not(.animated) .animable {opacity: 0;}svg#freepik_stories-seminar.animated #freepik--Board--inject-62 {animation: 2.6s 1 forwards cubic-bezier(.36,-0.01,.5,1.38) fadeIn;animation-delay: 0s;}svg#freepik_stories-seminar.animated #freepik--character-1--inject-62 {animation: 1.6s 1 forwards cubic-bezier(.36,-0.01,.5,1.38) slideLeft;animation-delay: 0s;}svg#freepik_stories-seminar.animated #freepik--character-3--inject-62 {animation: 2.7s 1 forwards cubic-bezier(.36,-0.01,.5,1.38) slideLeft;animation-delay: 0s;}svg#freepik_stories-seminar.animated #freepik--character-2--inject-62 {animation: 2.6s 1 forwards cubic-bezier(.36,-0.01,.5,1.38) slideLeft;animation-delay: 0s;}            @keyframes fadeIn {                0% {                    opacity: 0;                }                100% {                    opacity: 1;                }            }                    @keyframes slideLeft {                0% {                    opacity: 0;                    transform: translateX(-30px);                }                100% {                    opacity: 1;                    transform: translateX(0);                }            }        .animator-hidden { display: none; }</style><g id="freepik--background-complete--inject-62" class="animable animator-active animator-hidden" style="transform-origin: 250px 228.23px;"><rect x="416.78" y="398.49" width="33.12" height="0.25" style="fill: rgb(235, 235, 235); transform-origin: 433.34px 398.615px;" id="eleq75zbixszq" class="animable"></rect><rect x="322.53" y="401.21" width="8.69" height="0.25" style="fill: rgb(235, 235, 235); transform-origin: 326.875px 401.335px;" id="elix9xgeuku7" class="animable"></rect><rect x="396.59" y="389.21" width="19.19" height="0.25" style="fill: rgb(235, 235, 235); transform-origin: 406.185px 389.335px;" id="el3xtforrpmx4" class="animable"></rect><rect x="52.46" y="390.89" width="43.19" height="0.25" style="fill: rgb(235, 235, 235); transform-origin: 74.055px 391.015px;" id="eld32ucfpjfr" class="animable"></rect><rect x="104.56" y="390.89" width="6.33" height="0.25" style="fill: rgb(235, 235, 235); transform-origin: 107.725px 391.015px;" id="elwg5s2bitgt" class="animable"></rect><rect x="131.47" y="395.11" width="93.68" height="0.25" style="fill: rgb(235, 235, 235); transform-origin: 178.31px 395.235px;" id="elq204b3pp3r" class="animable"></rect><path d="M238.4,337.8H45.3a5.71,5.71,0,0,1-5.71-5.71V60.66A5.71,5.71,0,0,1,45.3,55H238.4a5.71,5.71,0,0,1,5.71,5.71V332.09A5.71,5.71,0,0,1,238.4,337.8ZM45.3,55.2a5.47,5.47,0,0,0-5.46,5.46V332.09a5.47,5.47,0,0,0,5.46,5.46H238.4a5.47,5.47,0,0,0,5.46-5.46V60.66a5.47,5.47,0,0,0-5.46-5.46Z" style="fill: rgb(235, 235, 235); transform-origin: 141.85px 196.4px;" id="elh4j3moniy3k" class="animable"></path><path d="M454.7,337.8H261.6a5.71,5.71,0,0,1-5.71-5.71V60.66A5.71,5.71,0,0,1,261.6,55H454.7a5.71,5.71,0,0,1,5.71,5.71V332.09A5.71,5.71,0,0,1,454.7,337.8ZM261.6,55.2a5.47,5.47,0,0,0-5.46,5.46V332.09a5.47,5.47,0,0,0,5.46,5.46H454.7a5.47,5.47,0,0,0,5.46-5.46V60.66a5.47,5.47,0,0,0-5.46-5.46Z" style="fill: rgb(235, 235, 235); transform-origin: 358.15px 196.4px;" id="elajkrjo4abq" class="animable"></path><rect y="382.4" width="500" height="0.25" style="fill: rgb(235, 235, 235); transform-origin: 250px 382.525px;" id="elnmli2a80f2" class="animable"></rect><path d="M375,375.47l-28.08-5.88V224.24h-9V369.59l-28.08,5.88a7.09,7.09,0,0,0-5.63,6.94h76.38A7.09,7.09,0,0,0,375,375.47Z" style="fill: rgb(224, 224, 224); transform-origin: 342.4px 303.325px;" id="elea7ic7h91b" class="animable"></path><path d="M341.76,137.35h16a26.94,26.94,0,0,1,26.94,26.94v36.93a26.94,26.94,0,0,1-26.94,26.94h-16a0,0,0,0,1,0,0v-90.8A0,0,0,0,1,341.76,137.35Z" style="fill: rgb(230, 230, 230); transform-origin: 363.23px 182.755px;" id="el2t5s1jpkupo" class="animable"></path><path d="M357.81,217.19H341.76v11h16.05a26.94,26.94,0,0,0,26.93-26.94v-11A26.94,26.94,0,0,1,357.81,217.19Z" style="fill: rgb(224, 224, 224); transform-origin: 363.25px 209.22px;" id="elytz5oacr6t" class="animable"></path><rect x="304.59" y="137.35" width="54.05" height="90.8" rx="14.98" style="fill: rgb(240, 240, 240); transform-origin: 331.615px 182.75px;" id="elvytv7eupobs" class="animable"></rect><circle cx="331.62" cy="160.71" r="17.91" style="fill: rgb(224, 224, 224); transform-origin: 331.62px 160.71px;" id="elpu2w93dqdqm" class="animable"></circle><circle cx="331.62" cy="203.55" r="17.91" style="fill: rgb(224, 224, 224); transform-origin: 331.62px 203.55px;" id="elvntkunsrkl" class="animable"></circle><circle cx="331.62" cy="160.71" r="14.93" style="fill: rgb(235, 235, 235); transform-origin: 331.62px 160.71px;" id="elq9qmlkgzex" class="animable"></circle><path d="M337.59,160.71a6,6,0,1,1-6-6A6,6,0,0,1,337.59,160.71Z" style="fill: rgb(224, 224, 224); transform-origin: 331.59px 160.71px;" id="elcpg99rlbxyc" class="animable"></path><circle cx="331.62" cy="203.55" r="14.93" style="fill: rgb(235, 235, 235); transform-origin: 331.62px 203.55px;" id="eldazypqkepl" class="animable"></circle><path d="M337.59,203.55a6,6,0,1,1-6-6A6,6,0,0,1,337.59,203.55Z" style="fill: rgb(224, 224, 224); transform-origin: 331.59px 203.55px;" id="elv8ddwas9dsr" class="animable"></path><path d="M430.56,82.55H68.78A2.77,2.77,0,0,1,66,79.78h0A2.77,2.77,0,0,1,68.78,77H430.56a2.77,2.77,0,0,1,2.78,2.78h0A2.77,2.77,0,0,1,430.56,82.55Z" style="fill: rgb(230, 230, 230); transform-origin: 249.67px 79.775px;" id="elj6k3m5yrmpb" class="animable"></path><path d="M129.17,116.1h0a9.75,9.75,0,0,1-13.79,0l-3.61-3.61a9.75,9.75,0,0,1,0-13.78h0a9.75,9.75,0,0,1,13.79,0l3.61,3.6A9.75,9.75,0,0,1,129.17,116.1Z" style="fill: rgb(224, 224, 224); transform-origin: 120.472px 107.405px;" id="elqhos7sdmte" class="animable"></path><path d="M119.15,112.19a4.95,4.95,0,1,0,7,7l6.12-6.12a4.95,4.95,0,1,0-7-7Z" style="fill: rgb(245, 245, 245); transform-origin: 125.71px 112.63px;" id="eli7krm7qlt4" class="animable"></path><path d="M119.91,100a4.06,4.06,0,0,1-8.12,0V81.85h8.12Z" style="fill: rgb(240, 240, 240); transform-origin: 115.85px 92.955px;" id="ell2aejlmdcwl" class="animable"></path><path d="M118.08,100a2.23,2.23,0,1,1-2.23-2.23A2.23,2.23,0,0,1,118.08,100Z" style="fill: rgb(224, 224, 224); transform-origin: 115.85px 100px;" id="el562z1fxrkpe" class="animable"></path><path d="M217.85,116.1h0a9.75,9.75,0,0,1-13.79,0l-3.61-3.61a9.75,9.75,0,0,1,0-13.78h0a9.75,9.75,0,0,1,13.79,0l3.61,3.6A9.75,9.75,0,0,1,217.85,116.1Z" style="fill: rgb(224, 224, 224); transform-origin: 209.153px 107.405px;" id="elqphafla5h4c" class="animable"></path><path d="M207.83,112.19a4.95,4.95,0,1,0,7,7l6.12-6.12a4.95,4.95,0,1,0-7-7Z" style="fill: rgb(245, 245, 245); transform-origin: 214.39px 112.63px;" id="eljnsu878gea" class="animable"></path><path d="M208.59,100a4.06,4.06,0,0,1-8.12,0V81.85h8.12Z" style="fill: rgb(240, 240, 240); transform-origin: 204.53px 92.955px;" id="elay4o7gx6tjt" class="animable"></path><path d="M206.76,100a2.23,2.23,0,1,1-2.23-2.23A2.23,2.23,0,0,1,206.76,100Z" style="fill: rgb(224, 224, 224); transform-origin: 204.53px 100px;" id="el5smvyemjd6l" class="animable"></path><path d="M379.11,116.1h0a9.75,9.75,0,0,0,13.79,0l3.6-3.61a9.74,9.74,0,0,0,0-13.78h0a9.74,9.74,0,0,0-13.78,0l-3.61,3.6A9.75,9.75,0,0,0,379.11,116.1Z" style="fill: rgb(224, 224, 224); transform-origin: 387.805px 107.405px;" id="elue8dm9mohp" class="animable"></path><path d="M389.13,112.19a4.95,4.95,0,1,1-7,7L376.05,113a4.95,4.95,0,1,1,7-7Z" style="fill: rgb(245, 245, 245); transform-origin: 382.59px 112.595px;" id="el8uekl0k6as4" class="animable"></path><path d="M388.37,100a4.06,4.06,0,0,0,8.12,0V81.85h-8.12Z" style="fill: rgb(240, 240, 240); transform-origin: 392.43px 92.9494px;" id="el6zx6lxhtbu6" class="animable"></path><path d="M390.2,100a2.23,2.23,0,1,0,2.23-2.23A2.23,2.23,0,0,0,390.2,100Z" style="fill: rgb(224, 224, 224); transform-origin: 392.43px 100px;" id="elmxgx5b48us" class="animable"></path><path d="M290.43,116.1h0a9.75,9.75,0,0,0,13.79,0l3.6-3.61a9.74,9.74,0,0,0,0-13.78h0a9.74,9.74,0,0,0-13.78,0l-3.61,3.6A9.75,9.75,0,0,0,290.43,116.1Z" style="fill: rgb(224, 224, 224); transform-origin: 299.125px 107.405px;" id="elp6rcnv5h9co" class="animable"></path><path d="M300.45,112.19a4.95,4.95,0,1,1-7,7L287.37,113a4.95,4.95,0,1,1,7-7Z" style="fill: rgb(245, 245, 245); transform-origin: 293.91px 112.595px;" id="elr15p203e9l" class="animable"></path><path d="M299.69,100a4.06,4.06,0,1,0,8.12,0V81.85h-8.12Z" style="fill: rgb(240, 240, 240); transform-origin: 303.75px 92.955px;" id="elvqfefm0fgv" class="animable"></path><path d="M301.52,100a2.23,2.23,0,1,0,2.23-2.23A2.23,2.23,0,0,0,301.52,100Z" style="fill: rgb(224, 224, 224); transform-origin: 303.75px 100px;" id="ellnojtvfo3lo" class="animable"></path></g><g id="freepik--Shadow--inject-62" class="animable" style="transform-origin: 250.81px 415.69px;"><ellipse id="freepik--path--inject-62" cx="250.81" cy="415.69" rx="216.82" ry="11.32" style="fill: rgb(245, 245, 245); transform-origin: 250.81px 415.69px;" class="animable"></ellipse></g><g id="freepik--Stage--inject-62" class="animable" style="transform-origin: 245.297px 357.88px;"><g id="elldbrj4tepfn"><path d="M425.45,300.28h0c12.79,0,21.9,9.53,21.23,22.23l-1.47,27.76a8.06,8.06,0,0,1-8,7.64h-51.4l10.62-35.4C400.18,309.81,412.65,300.28,425.45,300.28Z" style="fill: rgb(255, 255, 255); opacity: 0.3; transform-origin: 416.262px 329.095px;" class="animable"></path></g><rect x="43.88" y="403.97" width="118.3" height="11.51" style="fill: rgb(0, 0, 139); transform-origin: 103.03px 409.725px;" id="el9luksmtvixr" class="animable"></rect><g id="elyegbigp2tf"><rect x="43.88" y="403.97" width="118.3" height="11.51" style="fill: rgb(255, 255, 255); opacity: 0.3; transform-origin: 103.03px 409.725px;" class="animable"></rect></g><rect x="152.2" y="403.97" width="191.8" height="11.51" style="fill: rgb(0, 0, 139); transform-origin: 248.1px 409.725px;" id="el795ug8o1njo" class="animable"></rect><g id="el27w8xy3fe99"><rect x="152.2" y="403.97" width="191.8" height="11.51" style="fill: rgb(255, 255, 255); opacity: 0.7; transform-origin: 248.1px 409.725px;" class="animable"></rect></g></g><g id="freepik--Board--inject-62" class="animable" style="transform-origin: 125.71px 271.027px;"><path d="M87.16,403.72h0a1,1,0,0,1-.91-1.08l20.12-241.07h2v2h-.16l-20,239.24A1,1,0,0,1,87.16,403.72Z" style="fill: rgb(38, 50, 56); transform-origin: 97.3082px 282.646px;" id="elxdex3rz388" class="animable"></path><path d="M176.57,403.72h0a1,1,0,0,0,.92-1.08L157.37,161.57h-2v2h.17l12.86,154.16H103.67l-13-156.16h-2v2h.16l20,239.24a1,1,0,0,0,1.08.91h0a1,1,0,0,0,.91-1.08l-6.92-82.91h64.73l6.93,83.08A1,1,0,0,0,176.57,403.72Z" style="fill: rgb(38, 50, 56); transform-origin: 133.082px 282.647px;" id="ely31hm4cv4nt" class="animable"></path><polygon points="181.2 285.89 85.61 285.89 73.54 141.27 169.13 141.27 181.2 285.89" style="fill: rgb(0, 0, 139); transform-origin: 127.37px 213.58px;" id="elxji364li7qd" class="animable"></polygon><g id="elustutab0ox"><polygon points="181.2 285.89 85.61 285.89 73.54 141.27 169.13 141.27 181.2 285.89" style="fill: rgb(255, 255, 255); opacity: 0.8; transform-origin: 127.37px 213.58px;" class="animable"></polygon></g><path d="M169.05,144.67H73.39a3.17,3.17,0,0,1-3.17-3.17h0a3.17,3.17,0,0,1,3.17-3.17h95.66a3.17,3.17,0,0,1,3.17,3.17h0A3.17,3.17,0,0,1,169.05,144.67Z" style="fill: rgb(0, 0, 139); transform-origin: 121.22px 141.5px;" id="el6o32cyzljmi" class="animable"></path><g id="elew6195uj0di"><path d="M169.05,144.67H73.39a3.17,3.17,0,0,1-3.17-3.17h0a3.17,3.17,0,0,1,3.17-3.17h95.66a3.17,3.17,0,0,1,3.17,3.17h0A3.17,3.17,0,0,1,169.05,144.67Z" style="fill: rgb(255, 255, 255); opacity: 0.5; transform-origin: 121.22px 141.5px;" class="animable"></path></g><path d="M129.71,231.42l-1.42-16.93a1,1,0,0,1,.92-1.08h0a1,1,0,0,1,1.08.91l1.41,16.93a1,1,0,0,1-.91,1.08h0A1,1,0,0,1,129.71,231.42Z" style="fill: rgb(0, 0, 139); transform-origin: 129.995px 222.87px;" id="el2c8fe7ihjl4" class="animable"></path><path d="M113.68,214.9c-12.43,0-23.43-10.12-24.52-22.55a20.34,20.34,0,0,1,20.57-22.54,25.13,25.13,0,0,1,24.52,22.54A20.36,20.36,0,0,1,113.68,214.9Zm-3.86-44.09a19.45,19.45,0,0,0-19.66,21.54,24,24,0,0,0,23.43,21.55,19.45,19.45,0,0,0,19.66-21.55A24,24,0,0,0,109.82,170.81Z" style="fill: rgb(0, 0, 139); transform-origin: 111.704px 192.355px;" id="elfu8ije3xqfu" class="animable"></path><path d="M145,214.9c-12.43,0-23.43-10.12-24.52-22.55a20.35,20.35,0,0,1,20.57-22.54,25.13,25.13,0,0,1,24.52,22.54A20.35,20.35,0,0,1,145,214.9Zm-3.86-44.09a19.45,19.45,0,0,0-19.66,21.54,24,24,0,0,0,23.43,21.55,19.45,19.45,0,0,0,19.66-21.55A24,24,0,0,0,141.15,170.81Z" style="fill: rgb(0, 0, 139); transform-origin: 143.026px 192.355px;" id="el18ouen48wb" class="animable"></path><path d="M121,192.77l9.46-10.36c-.18-.31-.38-.62-.57-.92l-9,9.85c0,.34,0,.68.06,1C121,192.49,121,192.63,121,192.77Z" style="fill: rgb(0, 0, 139); transform-origin: 125.675px 187.13px;" id="eljxot23s9is" class="animable"></path><path d="M131.69,184.66c-.16-.34-.32-.68-.5-1l-9.9,10.85c.07.43.16.85.26,1.26Z" style="fill: rgb(0, 0, 139); transform-origin: 126.49px 189.715px;" id="elt7as67vm4im" class="animable"></path><path d="M132.66,187.14c-.12-.38-.25-.75-.39-1.12L122,197.29c.12.38.25.75.38,1.12Z" style="fill: rgb(0, 0, 139); transform-origin: 127.33px 192.215px;" id="el05yl5yliddn7" class="animable"></path><path d="M129.14,180.35l-.65-.84-7.39,8.1c-.08.57-.13,1.14-.16,1.72Z" style="fill: rgb(0, 0, 139); transform-origin: 125.04px 184.42px;" id="elbylty8q9ste" class="animable"></path><path d="M127.61,178.47c-.23-.26-.47-.51-.72-.76l-4.48,4.92a19.78,19.78,0,0,0-.81,2.43Z" style="fill: rgb(0, 0, 139); transform-origin: 124.605px 181.385px;" id="elp6krqzvvbj" class="animable"></path><path d="M132.59,201.42a21.14,21.14,0,0,0,.69-2.3L127,206c.23.26.47.52.71.77Z" style="fill: rgb(0, 0, 139); transform-origin: 130.14px 202.945px;" id="elhrkgle36je4" class="animable"></path><path d="M130.09,206.16l-1.46,1.6.1.1A20.25,20.25,0,0,0,130.09,206.16Z" style="fill: rgb(0, 0, 139); transform-origin: 129.36px 207.01px;" id="elzkaeh1n0omo" class="animable"></path><path d="M133.39,189.89c-.08-.42-.18-.83-.28-1.24L122.94,199.8q.23.51.48,1Z" style="fill: rgb(0, 0, 139); transform-origin: 128.165px 194.725px;" id="el00wt187asiqjc" class="animable"></path><path d="M133.7,196.65c.06-.55.1-1.11.11-1.67l-8.36,9.16c.21.29.42.57.64.85Z" style="fill: rgb(0, 0, 139); transform-origin: 129.63px 199.985px;" id="elu2vtpq0gs8f" class="animable"></path><path d="M133.79,193c0-.22,0-.44,0-.66l-.09-.76-9.56,10.48q.27.47.57.93Z" style="fill: rgb(0, 0, 139); transform-origin: 128.965px 197.285px;" id="el7ge7amzk6dc" class="animable"></path><path d="M163.24,241.5H100.32a3.65,3.65,0,0,1-3.56-3.28h0a3,3,0,0,1,3-3.27h62.92a3.65,3.65,0,0,1,3.56,3.27h0A3,3,0,0,1,163.24,241.5Z" style="fill: rgb(0, 0, 139); transform-origin: 131.5px 238.225px;" id="el5ljlyj6o58r" class="animable"></path><path d="M156.58,254.77H112.66a3.65,3.65,0,0,1-3.56-3.28h0a3,3,0,0,1,3-3.27H156a3.64,3.64,0,0,1,3.56,3.27h0A3,3,0,0,1,156.58,254.77Z" style="fill: rgb(0, 0, 139); transform-origin: 134.33px 251.495px;" id="elyrhqq03wqx" class="animable"></path><path d="M163.24,241.5H100.32a3.65,3.65,0,0,1-3.56-3.28h0a3,3,0,0,1,3-3.27h62.92a3.65,3.65,0,0,1,3.56,3.27h0A3,3,0,0,1,163.24,241.5Z" style="fill: rgb(0, 0, 139); transform-origin: 131.5px 238.225px;" id="elxm4z55sqfdi" class="animable"></path><path d="M156.58,254.77H112.66a3.65,3.65,0,0,1-3.56-3.28h0a3,3,0,0,1,3-3.27H156a3.64,3.64,0,0,1,3.56,3.27h0A3,3,0,0,1,156.58,254.77Z" style="fill: rgb(0, 0, 139); transform-origin: 134.33px 251.495px;" id="ely1wy4yu08dm" class="animable"></path></g><g id="freepik--character-1--inject-62" class="animable" style="transform-origin: 215.03px 269.825px;"><polygon points="234.62 394.33 240.86 392.36 238.34 378.03 232.09 380 234.62 394.33" style="fill: rgb(206, 122, 99); transform-origin: 236.475px 386.18px;" id="elws59fzcujxc" class="animable"></polygon><path d="M241,391.55l-7,2.21a.52.52,0,0,0-.36.57l.94,5.5a1,1,0,0,0,1.35.74c2.43-.81,3.57-1.32,6.66-2.29,1.9-.6,10-3,12.64-3.79s2-3.32.78-3.2c-5.22.55-11.74,1.08-13.82.29A1.78,1.78,0,0,0,241,391.55Z" style="fill: rgb(38, 50, 56); transform-origin: 245.351px 395.963px;" id="eluvfnyt2bqqj" class="animable"></path><g id="elbrt4rpr92mc"><polygon points="232.09 380 238.34 378.03 239.64 385.42 233.39 387.39 232.09 380" style="opacity: 0.2; transform-origin: 235.865px 382.71px;" class="animable"></polygon></g><path d="M230,235s4.08,52,5.05,70.14c1.06,19.87,7,78,7,78l-11.55,3.12s-11.19-56.3-14.06-75.61c-3.12-21-9.25-75.61-9.25-75.61Z" style="fill: rgb(38, 50, 56); transform-origin: 224.62px 310.63px;" id="elnd6s83nb7ki" class="animable"></path><polygon points="230.14 386.39 242.51 383.06 242.71 378.14 228.7 382.85 230.14 386.39" style="fill: rgb(38, 50, 56); transform-origin: 235.705px 382.265px;" id="ell3z75psafr" class="animable"></polygon><path d="M243.49,391.91a8.48,8.48,0,0,1-1.72.31.14.14,0,0,1-.13-.08.14.14,0,0,1,0-.16c.17-.2,1.66-1.93,2.49-1.88a.5.5,0,0,1,.44.29.82.82,0,0,1,0,.83A1.89,1.89,0,0,1,243.49,391.91Zm-1.36,0c1.17-.14,2-.43,2.21-.81a.55.55,0,0,0,0-.54.24.24,0,0,0-.21-.14C243.66,390.37,242.74,391.21,242.13,391.89Z" style="fill: rgb(0, 0, 139); transform-origin: 243.149px 391.159px;" id="elq7rz1xq5bo9" class="animable"></path><path d="M241.81,392.21h-.07a.17.17,0,0,1-.11-.09c0-.08-.58-1.78-.09-2.57a.88.88,0,0,1,.58-.39.51.51,0,0,1,.62.26c.31.62-.33,2.18-.86,2.74Zm.27-2.73a.53.53,0,0,0-.29.22,3.31,3.31,0,0,0,.05,2.06,3.16,3.16,0,0,0,.63-2.18c0-.08-.1-.16-.32-.12Z" style="fill: rgb(0, 0, 139); transform-origin: 242.082px 390.672px;" id="elymwoeskgn7r" class="animable"></path><g id="elav4z501ynfe"><path d="M215.63,251.08c-2.38-9.28-4.81-7.06-6.54-3,.18,2.85.37,5.85.58,9,1.42,12.19,3.22,27.28,4.79,39.48C217.4,284.34,219,264,215.63,251.08Z" style="opacity: 0.6; transform-origin: 213.305px 270.567px;" class="animable"></path></g><polygon points="187.53 397.12 193.92 397.12 196.04 382.33 189.66 382.33 187.53 397.12" style="fill: rgb(206, 122, 99); transform-origin: 191.785px 389.725px;" id="el5bokwub2ndp" class="animable"></polygon><path d="M194.32,396.38h-7.18a.52.52,0,0,0-.51.44l-.84,5.68a1,1,0,0,0,1,1.13c2.5,0,3.7-.19,6.86-.19,1.94,0,10.18.21,12.86.21s2.84-2.65,1.72-2.9c-5-1.07-11.18-2.56-12.86-4A1.67,1.67,0,0,0,194.32,396.38Z" style="fill: rgb(38, 50, 56); transform-origin: 197.333px 400.015px;" id="eltfv9zh6aqn" class="animable"></path><g id="el5k8c1rgwjqt"><polygon points="189.65 382.33 196.04 382.33 194.95 389.96 188.56 389.96 189.65 382.33" style="opacity: 0.2; transform-origin: 192.3px 386.145px;" class="animable"></polygon></g><path d="M218.52,234.62s-3.66,48.82-6.3,67.11c-2.88,20-14.37,86.39-14.37,86.39h-11.7s6-64.74,7-84.57c1.12-21.52,3.28-68.93,3.28-68.93Z" style="fill: rgb(38, 50, 56); transform-origin: 202.335px 311.37px;" id="elkv4xmvf6fu" class="animable"></path><polygon points="185.68 388.12 198.32 388.12 199.41 383.68 185.39 384.37 185.68 388.12" style="fill: rgb(38, 50, 56); transform-origin: 192.4px 385.9px;" id="elqbkwb8sauw" class="animable"></polygon><path d="M196.49,397.5a7.49,7.49,0,0,1-1.68-.23.14.14,0,0,1-.11-.12.19.19,0,0,1,.08-.15c.21-.14,2.13-1.38,2.88-1.07a.48.48,0,0,1,.31.42.88.88,0,0,1-.25.81A1.87,1.87,0,0,1,196.49,397.5Zm-1.26-.45a3.1,3.1,0,0,0,2.3-.1.58.58,0,0,0,.15-.53.23.23,0,0,0-.15-.21C197.13,396,196,396.58,195.23,397.05Z" style="fill: rgb(0, 0, 139); transform-origin: 196.344px 396.693px;" id="elj6jo4dupdpq" class="animable"></path><path d="M194.84,397.27h-.07a.15.15,0,0,1-.07-.12c0-.08,0-1.92.72-2.54a.79.79,0,0,1,.65-.21.52.52,0,0,1,.5.45c.08.7-1,2-1.65,2.41A.13.13,0,0,1,194.84,397.27Zm1.1-2.59a.51.51,0,0,0-.33.13,3.55,3.55,0,0,0-.6,2c.6-.47,1.32-1.48,1.26-1.94,0-.08-.05-.19-.26-.21Z" style="fill: rgb(0, 0, 139); transform-origin: 195.637px 395.833px;" id="elomvp3mbyf" class="animable"></path><path d="M232.64,182.65c1.56,3.61,3.33,7.37,5.2,10.85.93,1.76,1.93,3.45,3,5a21.15,21.15,0,0,0,3.21,4,5.86,5.86,0,0,0,.67.54c.18.13.3.18.3.19s-.12.05,0,.06a1,1,0,0,0,.46-.09,6.29,6.29,0,0,0,1.75-1.08,20.14,20.14,0,0,0,2-1.8,76.36,76.36,0,0,0,7.27-9.45l4,1.88a46.63,46.63,0,0,1-5.86,12,24.32,24.32,0,0,1-2.3,2.82A14.81,14.81,0,0,1,249,210.2a9,9,0,0,1-2.5,1,7.79,7.79,0,0,1-3.16,0,10.93,10.93,0,0,1-4.54-2.19,27.56,27.56,0,0,1-5.09-5.46,61.38,61.38,0,0,1-3.67-5.68c-1.09-1.93-2.12-3.86-3.05-5.83s-1.83-3.9-2.66-6Z" style="fill: rgb(206, 122, 99); transform-origin: 242.415px 197.006px;" id="elyulsgdvaxcc" class="animable"></path><path d="M243.21,198l-10.09,7.53s-.39-.42-1-1.16c-.47-.55-1.07-1.27-1.77-2.11-3.92-4.78-9.65-13.5-9.7-17.77-.07-6.37,6.54-7.31,14-.8,3.2,2.81,4.88,7.48,6.5,10.37.54.95,1,1.79,1.35,2.44C242.93,197.41,243.21,198,243.21,198Z" style="fill: rgb(0, 0, 139); transform-origin: 231.93px 192.384px;" id="elngms80a7qkn" class="animable"></path><g id="elnybj2odoyr"><path d="M243.21,198l-10.09,7.53s-.39-.42-1-1.16c-.47-.55-1.07-1.27-1.77-2.11-3.92-4.78-9.65-13.5-9.7-17.77-.07-6.37,6.54-7.31,14-.8,3.2,2.81,4.88,7.48,6.5,10.37.54.95,1,1.79,1.35,2.44C242.93,197.41,243.21,198,243.21,198Z" style="fill: rgb(255, 255, 255); opacity: 0.6; transform-origin: 231.93px 192.384px;" class="animable"></path></g><g id="elkq8aie8klv"><path d="M220.55,185.19c2.28-1.51,3.95,2.4,8.46,5.69,2,1.47,6.41,11.06,6.05,13.17l-1.95,1.45S220.5,191.54,220.55,185.19Z" style="opacity: 0.3; transform-origin: 227.815px 195.178px;" class="animable"></path></g><path d="M255.93,191.13l2.2-7,5.7,4.19s-3.11,6.26-5.22,5.69Z" style="fill: rgb(206, 122, 99); transform-origin: 259.88px 189.088px;" id="eleirg0df5rf" class="animable"></path><polygon points="243.21 196.99 232.18 205.24 233.55 206.68 244.05 198.93 243.21 196.99" style="fill: rgb(0, 0, 139); transform-origin: 238.115px 201.835px;" id="el2qmrcr4togs" class="animable"></polygon><g id="el8xf8hpyfygr"><polygon points="243.21 196.99 232.18 205.24 233.55 206.68 244.05 198.93 243.21 196.99" style="fill: rgb(255, 255, 255); opacity: 0.8; transform-origin: 238.115px 201.835px;" class="animable"></polygon></g><path d="M230.61,235H196.44c-.24-3,.46-13-.06-25.62a162.88,162.88,0,0,0-3.4-27.87c-.15-.69-.31-1.37-.47-2.06,0,0,1.73-.35,4.21-.71,2.06-.3,4.65-.62,7.18-.74a130.15,130.15,0,0,1,14.52,0c2.23.21,4.41.58,6.15.92,2.23.45,3.54.83,3.54.83S236.53,199,230.61,235Z" style="fill: rgb(0, 0, 139); transform-origin: 212.615px 206.399px;" id="elxb6xn7fafln" class="animable"></path><g id="el35rkg69fdtx"><path d="M230.61,235H196.44c-.24-3,.46-13-.06-25.62a162.88,162.88,0,0,0-3.4-27.87c-.15-.69-.31-1.37-.47-2.06,0,0,1.73-.35,4.21-.71,2.06-.3,4.65-.62,7.18-.74a130.15,130.15,0,0,1,14.52,0c2.23.21,4.41.58,6.15.92,2.23.45,3.54.83,3.54.83S236.53,199,230.61,235Z" style="fill: rgb(255, 255, 255); opacity: 0.6; transform-origin: 212.615px 206.399px;" class="animable"></path></g><polygon points="264.14 181.41 267.35 185.35 263.83 188.28 258.13 184.1 264.14 181.41" style="fill: rgb(206, 122, 99); transform-origin: 262.74px 184.845px;" id="eloc2au3cwr3o" class="animable"></polygon><path d="M197.59,186.07c-.34,2.17-.78,4.16-1.25,6.22s-1,4.07-1.66,6.11a63.21,63.21,0,0,1-2.23,6.09,30.88,30.88,0,0,1-3.44,6.16,13.14,13.14,0,0,1-3.22,3.1,8.43,8.43,0,0,1-2.73,1.17,7.4,7.4,0,0,1-3.31,0,9,9,0,0,1-4.35-2.73,15.72,15.72,0,0,1-2.21-3.14,30.64,30.64,0,0,1-2.52-6.19c-.31-1-.56-2.07-.78-3.11s-.43-2-.57-3.16l4.3-1.18a56.11,56.11,0,0,0,5.56,9.78,10.44,10.44,0,0,0,1.53,1.61c.47.39.88.47.76.36a.71.71,0,0,0-.31-.08c-.08,0-.08,0,0-.08a6.54,6.54,0,0,0,1-1.23,23.43,23.43,0,0,0,2.18-4.54c.65-1.7,1.21-3.51,1.73-5.35,1-3.66,1.92-7.55,2.64-11.25Z" style="fill: rgb(206, 122, 99); transform-origin: 183.455px 199.869px;" id="elhmbzrzuay" class="animable"></path><path d="M174.13,195.77l-2.19-7-5.71,4.19s3.12,6.26,5.23,5.69Z" style="fill: rgb(206, 122, 99); transform-origin: 170.18px 193.728px;" id="elxlwv7o9lio" class="animable"></path><polygon points="165.92 186.05 162.71 189.99 166.23 192.93 171.94 188.74 165.92 186.05" style="fill: rgb(206, 122, 99); transform-origin: 167.325px 189.49px;" id="elvp5zd4omsy" class="animable"></polygon><g id="el5l4j80vbi0o"><path d="M196.38,209.33a162.88,162.88,0,0,0-3.4-27.87c2.29-.19,6.19,0,6.84,3.72C200.51,189.14,199.64,198.47,196.38,209.33Z" style="opacity: 0.3; transform-origin: 196.51px 195.37px;" class="animable"></path></g><path d="M200.66,190.37a115.51,115.51,0,0,1-4.94,12.76c-.41.94-.79,1.77-1.1,2.44l-.89,1.9L180.94,201s.14-.53.4-1.43c.19-.68.44-1.56.76-2.59,1.88-6,5.79-16.8,10-17.55C198.28,178.25,202.94,182.77,200.66,190.37Z" style="fill: rgb(0, 0, 139); transform-origin: 191.094px 193.357px;" id="el1205pb9qi7x" class="animable"></path><g id="elhw5c1kxfpxe"><path d="M200.66,190.37a115.51,115.51,0,0,1-4.94,12.76c-.41.94-.79,1.77-1.1,2.44l-.89,1.9L180.94,201s.14-.53.4-1.43c.19-.68.44-1.56.76-2.59,1.88-6,5.79-16.8,10-17.55C198.28,178.25,202.94,182.77,200.66,190.37Z" style="fill: rgb(255, 255, 255); opacity: 0.6; transform-origin: 191.094px 193.357px;" class="animable"></path></g><path d="M212.27,182.75c-8.44-.23-9.71-4.35-9.76-4.53l0-.18,1.44-.09a130.15,130.15,0,0,1,14.52,0l.82.09a2.72,2.72,0,0,1,.95,2.45c-.37,1.44-2.35,1.92-4.08,2.12Z" style="fill: rgb(255, 255, 255); transform-origin: 211.387px 180.249px;" id="elhr8c6s91hrf" class="animable"></path><polygon points="181.24 198.65 195.22 205.8 193.64 207.74 180.64 200.99 181.24 198.65" style="fill: rgb(0, 0, 139); transform-origin: 187.93px 203.195px;" id="elqrjbktiiyik" class="animable"></polygon><g id="ellrtv7t6d999"><polygon points="181.24 198.65 195.22 205.8 193.64 207.74 180.64 200.99 181.24 198.65" style="fill: rgb(255, 255, 255); opacity: 0.8; transform-origin: 187.93px 203.195px;" class="animable"></polygon></g><path d="M211.56,183.38l5.66-.63-1.25,3.8s3.89,20.26,4.65,27.08c.45,4.09.85,16.42.85,16.42l-2.95,3.25-4.38-2.08s.1-13.88.08-18.5c0-6.55-.33-26.17-.33-26.17l-2.54-2.45Z" style="fill: rgb(38, 50, 56); transform-origin: 216.41px 208.025px;" id="elz956x1e69a" class="animable"></path><path d="M210.18,187.11l4.12-3.75,5.08,3.5s5.26-5,1.35-8.63c-.75-.11-1.52-.2-2.31-.28a130.15,130.15,0,0,0-14.52,0c-1,.05-2,.13-3,.23C201.23,179.59,202.72,184.22,210.18,187.11Z" style="fill: rgb(0, 0, 139); transform-origin: 211.538px 182.429px;" id="elzhuz7g54kfo" class="animable"></path><g id="elot7oz899i99"><path d="M210.18,187.11l4.12-3.75,5.08,3.5s5.26-5,1.35-8.63c-.75-.11-1.52-.2-2.31-.28a130.15,130.15,0,0,0-14.52,0c-1,.05-2,.13-3,.23C201.23,179.59,202.72,184.22,210.18,187.11Z" style="fill: rgb(255, 255, 255); opacity: 0.8; transform-origin: 211.538px 182.429px;" class="animable"></path></g><path d="M212.54,181.9c-8.13-.14-9.2-3.91-9.2-3.91,3.16-3.12,1.95-11.64.87-16.32l3.89,3.22,5.29,4.4a16,16,0,0,0-.34,2.13c-.28,2.87.46,5.48,4.68,6.48,0,0,5,3.32-2.42,3.92Z" style="fill: rgb(206, 122, 99); transform-origin: 211.359px 171.785px;" id="eldetlyxr4tmj" class="animable"></path><g id="elb9le7umenun"><path d="M213.39,169.29a16,16,0,0,0-.34,2.13c-2-.39-4.61-2.5-4.88-4.51a8.92,8.92,0,0,1-.07-2Z" style="opacity: 0.2; transform-origin: 210.732px 168.165px;" class="animable"></path></g><path d="M202.61,154.94c1.35,6.21,1.82,9.9,5.49,12.74a8.27,8.27,0,0,0,13.37-6c.49-5.78-1.8-15-8.34-16.73A8.36,8.36,0,0,0,202.61,154.94Z" style="fill: rgb(206, 122, 99); transform-origin: 211.953px 157.025px;" id="elu0fzaalslir" class="animable"></path><path d="M212.41,155.55c.08.51.41.89.75.85s.54-.48.46-1-.41-.89-.75-.85S212.33,155,212.41,155.55Z" style="fill: rgb(38, 50, 56); transform-origin: 213.015px 155.475px;" id="el4do7703do1q" class="animable"></path><path d="M218.19,154.87c.08.51.42.89.75.85s.54-.49.47-1-.42-.89-.75-.85S218.12,154.36,218.19,154.87Z" style="fill: rgb(38, 50, 56); transform-origin: 218.8px 154.795px;" id="elg2smzhfeduf" class="animable"></path><path d="M216.39,155.34a19.42,19.42,0,0,0,3.12,4.07,2.9,2.9,0,0,1-2.37.74Z" style="fill: rgb(186, 77, 60); transform-origin: 217.95px 157.759px;" id="elapoo6yhcw67" class="animable"></path><path d="M210.33,153.91a.23.23,0,0,1-.14,0,.3.3,0,0,1-.12-.41,2.87,2.87,0,0,1,2.26-1.53.29.29,0,0,1,.32.28.3.3,0,0,1-.29.32,2.31,2.31,0,0,0-1.76,1.22A.32.32,0,0,1,210.33,153.91Z" style="fill: rgb(38, 50, 56); transform-origin: 211.341px 152.945px;" id="elor79o3f70n" class="animable"></path><path d="M220.37,152.59a.33.33,0,0,1-.25-.13,2.52,2.52,0,0,0-1.91-1.16.3.3,0,0,1,0-.6h0a3.09,3.09,0,0,1,2.4,1.42.3.3,0,0,1-.08.42A.34.34,0,0,1,220.37,152.59Z" style="fill: rgb(38, 50, 56); transform-origin: 219.287px 151.645px;" id="el4ophaqs14l" class="animable"></path><path d="M204.87,160s2.75,1.81,2.5-.38-1.25-9.56-1.25-9.56l3.06-2.5s13,.09,12.2-6.52-6.89-1.38-6.89-1.38,1.24-3.73-3.13-3.66a4.84,4.84,0,0,0-4.87,4.18s-4.12-2.43-6.15-.25a7.15,7.15,0,0,0-1.54,5.44s-10,1.41-3.5,11S206.62,167.11,204.87,160Z" style="fill: rgb(38, 50, 56); transform-origin: 207.26px 150.287px;" id="eltkaf5kltk1o" class="animable"></path><path d="M201.18,161.42a6.85,6.85,0,0,0,3.94,2.35c2,.33,2.4-1.49,1.4-3.24-.89-1.58-3-3.65-4.74-3.19S199.91,159.89,201.18,161.42Z" style="fill: rgb(206, 122, 99); transform-origin: 203.691px 160.542px;" id="elvu0t6qhoixs" class="animable"></path><path d="M210.3,168.16c-.89-2.26-2.12-6.24-.81-9.67s6.13,2.5,7.81,2.5,3.11-2.63,4.12-.82-3.3,12.22-4.21,9.49c0,0-1.22,1.87-2.34.16,0,0-.76,1.44-1.94,0C212.93,169.82,211.25,170.56,210.3,168.16Z" style="fill: rgb(38, 50, 56); transform-origin: 215.245px 163.981px;" id="eloqiuttrni6s" class="animable"></path><g id="elgt0ht7e3hyt"><path d="M210.3,168.16c-.89-2.26-2.12-6.24-.81-9.67s6.13,2.5,7.81,2.5,3.11-2.63,4.12-.82-3.3,12.22-4.21,9.49c0,0-1.22,1.87-2.34.16,0,0-.76,1.44-1.94,0C212.93,169.82,211.25,170.56,210.3,168.16Z" style="fill: rgb(255, 255, 255); opacity: 0.3; transform-origin: 215.245px 163.981px;" class="animable"></path></g><path d="M218.87,161.84a38.06,38.06,0,0,0-7.24-.63c.58,1.62,1.71,3,4.45,3A2.5,2.5,0,0,0,218.87,161.84Z" style="fill: rgb(38, 50, 56); transform-origin: 215.25px 162.718px;" id="elinbwrxpinq" class="animable"></path><path d="M214.85,162.92a5.05,5.05,0,0,1,3,.86,3,3,0,0,1-1.73.44,4.86,4.86,0,0,1-3-.86A2.92,2.92,0,0,1,214.85,162.92Z" style="fill: rgb(160, 39, 36); transform-origin: 215.485px 163.57px;" id="elrhsmulmra" class="animable"></path><path d="M218.62,161.79a1.09,1.09,0,0,1-.86.77A28.2,28.2,0,0,1,213,162a1.49,1.49,0,0,1-1.18-.82A42.82,42.82,0,0,1,218.62,161.79Z" style="fill: rgb(255, 255, 255); transform-origin: 215.22px 161.87px;" id="el3i1ci9p0h1o" class="animable"></path></g><g id="freepik--character-3--inject-62" class="animable" style="transform-origin: 397.843px 319.741px;"><path d="M408,237.59c-.38-.09-.85.25-1,.82s-.06,1.16.32,1.25.85-.25,1-.82S408.33,237.68,408,237.59Z" style="fill: rgb(46, 53, 58); transform-origin: 407.656px 238.625px;" id="elcikvxeccggh" class="animable"></path><path d="M405.91,243.77a2.92,2.92,0,0,1-2.13-1.28,19.31,19.31,0,0,0,4-3.22Z" style="fill: rgb(160, 39, 36); transform-origin: 405.78px 241.52px;" id="elkh5e2pyt8s8" class="animable"></path><path d="M410.5,236.71a2.78,2.78,0,0,0-1.49-2,.35.35,0,0,1,.26-.65,3.39,3.39,0,0,1,1.92,2.56v0a.35.35,0,0,1-.28.4h-.19A.37.37,0,0,1,410.5,236.71Z" style="fill: rgb(46, 53, 58); transform-origin: 409.993px 235.528px;" id="elzwmp49ack4d" class="animable"></path><path d="M424.63,264.48c.39,1.73.65,2.55-.9,3.3a16.85,16.85,0,0,1-10.42,1.73c-3.69-.63-4.35-1.95-4.2-3a2.76,2.76,0,0,1,1.7-1.77,4.53,4.53,0,0,0,2.73-4.21,8.06,8.06,0,0,0-.06-2.86l6.6-4.37,5-5.55A42.93,42.93,0,0,0,424.63,264.48Z" style="fill: rgb(181, 91, 82); transform-origin: 417.085px 258.73px;" id="el92mpojpgogc" class="animable"></path><path d="M403.87,268.34s2.44-6.73,6.4-8.29,15.83-.68,15.83-.68a49.45,49.45,0,0,0,2.22,7.13Z" style="fill: rgb(0, 0, 139); transform-origin: 416.095px 263.731px;" id="elmwhreounpg" class="animable"></path><path d="M428.1,240.3a10,10,0,0,0-10.35-9.74c-7.64.28-12.11,10.09-12.79,16.78-.76,7.42,6.55,13.65,13.56,10.27,4.66-2.25,6-6.31,8.76-13A10,10,0,0,0,428.1,240.3Z" style="fill: rgb(181, 91, 82); transform-origin: 416.505px 244.554px;" id="ely7hl455fs8" class="animable"></path><g id="elkefrwdvu86"><path d="M426.88,262.3q.63,2.13,1.44,4.2l-22.59,1.7a20.2,20.2,0,0,1,2.09-3.79C413.28,262.2,422.82,262.19,426.88,262.3Z" style="opacity: 0.2; transform-origin: 417.025px 265.232px;" class="animable"></path></g><path d="M422.74,254.71a8.86,8.86,0,0,0-3.65,0,2.71,2.71,0,0,1-3-1.45l-3.57-7.42s-5.12-1.7,1.15-11.93c0,0-11.93-3.95-3.12-12.06s3.12,2.86,3.12,2.86,11.14-6,5.57,1.6c0,0,17,.86,12.81,10.08,0,0,7,.14-6.71,17.34A2.64,2.64,0,0,1,422.74,254.71Z" style="fill: rgb(38, 50, 56); transform-origin: 420.572px 236.816px;" id="el0tk1a8qkdhg" class="animable"></path><path d="M415.2,241.06c-1.92-.28-4,1.65-4.66,3.37-.75,2,.23,4.2,2.25,3.66a6.64,6.64,0,0,0,3.77-2.82C417.64,243.56,417.12,241.34,415.2,241.06Z" style="fill: rgb(181, 91, 82); transform-origin: 413.702px 244.603px;" id="elw9lcmenleo" class="animable"></path><path d="M425.37,273.21c.87,1.74,1.84,3.65,2.71,5.49s1.75,3.73,2.54,5.6,1.57,3.73,2.21,5.57a31.57,31.57,0,0,1,1.43,5.23,9.89,9.89,0,0,1,.17,1.83,1.26,1.26,0,0,0,0,.16s0,0,0,0l0,0,.05-.09a18,18,0,0,1-1.49,1.38c-.71.48-1.51,1-2.35,1.46-3.4,1.91-7.32,3.62-11.1,5.36l1.27,5.28a52.89,52.89,0,0,0,6.68-.93,50.71,50.71,0,0,0,6.65-1.76,28.22,28.22,0,0,0,3.41-1.4,16.88,16.88,0,0,0,3.69-2.37,9.25,9.25,0,0,0,2-2.5,4.78,4.78,0,0,0,.23-.45l.17-.39c.11-.26.19-.5.27-.75a10.72,10.72,0,0,0,.35-1.41,17.32,17.32,0,0,0,.16-4.59,39.55,39.55,0,0,0-1.47-7.28c-.66-2.25-1.43-4.4-2.25-6.51S439,276,438.06,274s-1.92-4-3.07-6Z" style="fill: rgb(181, 91, 82); transform-origin: 432.022px 289.24px;" id="elrw61911n30g" class="animable"></path><path d="M422,305.41l-8.13-2.09-.67,7.31s5.48,2.26,8.86-1.28Z" style="fill: rgb(181, 91, 82); transform-origin: 417.63px 307.33px;" id="eldaqf2rwuh4k" class="animable"></path><polygon points="410.64 304.39 408.91 310.29 413.24 310.63 413.91 303.32 410.64 304.39" style="fill: rgb(181, 91, 82); transform-origin: 411.41px 306.975px;" id="eljhdlmz01ltq" class="animable"></polygon><path d="M442.63,281.82l-13.85,6.87s-.73-.19-6.21-8.95c-6.35-10.19-2.87-15.92,4.79-16.2C435.19,263.25,438,272.94,442.63,281.82Z" style="fill: rgb(0, 0, 139); transform-origin: 430.95px 276.112px;" id="elfuodax2j7p8" class="animable"></path><g id="eli67ul2fnuk"><polygon points="438.32 283.95 431.69 287.24 428.32 283.26 432.06 273.27 433.1 272.13 435.7 271.75 438.32 283.95" style="opacity: 0.2; transform-origin: 433.32px 279.495px;" class="animable"></polygon></g><polygon points="352.34 390.19 345.45 387.2 340.15 403.8 347.05 406.79 352.34 390.19" style="fill: rgb(181, 91, 82); transform-origin: 346.245px 396.995px;" id="elzto7rgxqge" class="animable"></polygon><g id="elw7lvcol60v"><polygon points="352.34 390.19 345.45 387.2 342.81 395.5 349.77 398.23 352.34 390.19" style="isolation: isolate; opacity: 0.2; transform-origin: 347.575px 392.715px;" class="animable"></polygon></g><path d="M339.38,400.88c-2.06,1.73-6.26,3-9.49,3.17-2.48.12-2.69,3,.42,3.5s8.53.28,10.81.37c3.7.14,5,.75,7.88.7a1.34,1.34,0,0,0,1.27-1.38l-.62-6.64a.55.55,0,0,0-.57-.5l-8.43.27A2.22,2.22,0,0,0,339.38,400.88Z" style="fill: rgb(38, 50, 56); transform-origin: 339.137px 404.361px;" id="elu6b31pmbnwg" class="animable"></path><path d="M415.29,321.7s5.78,6.86,1.12,17.72c-5.27,12.31-33.22,6.9-48.48,10.82-2.18,21.74-14.86,44-14.86,44l-10.61-4.16s4.6-17.31,8.05-48c1.69-15.09,40-16.75,40-16.75Z" style="fill: rgb(38, 50, 56); transform-origin: 380.343px 357.97px;" id="el6ca4b494i75" class="animable"></path><polygon points="355.18 392.32 341.67 387.59 340.85 392.54 353.16 397.01 355.18 392.32" style="fill: rgb(38, 50, 56); transform-origin: 348.015px 392.3px;" id="elaasxcqcl99q" class="animable"></polygon><polygon points="384.97 397.3 377.53 396.94 378.75 414.5 386.19 414.86 384.97 397.3" style="fill: rgb(181, 91, 82); transform-origin: 381.86px 405.9px;" id="el8oll07a2sh" class="animable"></polygon><path d="M376.72,412.66c-2.06,1.72-5.54,4.11-8.73,4.57-2.05.29-3.59,3.39.24,3.39s8-.36,10.24-.43c3.7-.12,4.93.21,7.86.21h0A1.33,1.33,0,0,0,387.6,419l-.61-6.65a.54.54,0,0,0-.58-.49l-8.41.27A2.1,2.1,0,0,0,376.72,412.66Z" style="fill: rgb(38, 50, 56); transform-origin: 376.74px 416.239px;" id="elxwyrmhoj9j" class="animable"></path><g id="elwdo7bverozd"><polygon points="385.65 406.98 378.24 406.99 377.53 396.95 384.97 397.31 385.65 406.98" style="isolation: isolate; opacity: 0.2; transform-origin: 381.59px 401.97px;" class="animable"></polygon></g><path d="M433.88,322.89s6.1,12.43.17,20.34c-5.37,7.18-32.78,7.66-46.71,7.66,1.38,17-.15,51.9-.15,51.9L376,402.64s-7.88-33.57-9.5-57.06c-.9-13,45.54-21.69,45.54-21.69Z" style="fill: rgb(38, 50, 56); transform-origin: 401.565px 362.84px;" id="elfzu1e6etgmu" class="animable"></path><polygon points="388.71 400.48 373.39 400.03 374.05 404.61 388.13 404.81 388.71 400.48" style="fill: rgb(38, 50, 56); transform-origin: 381.05px 402.42px;" id="eldfoodfxbquo" class="animable"></polygon><path d="M435.23,323.54l-45.83,1.91L393.71,274a11.24,11.24,0,0,1,11.2-10.3h22.84a8,8,0,0,1,7.95,8Z" style="fill: rgb(0, 0, 139); transform-origin: 412.55px 294.575px;" id="el7g9bqqonu0w" class="animable"></path><path d="M396.2,271.43,395,274.14c-.44.93-.89,1.86-1.36,2.78-.94,1.83-1.87,3.66-2.88,5.43s-2,3.52-3.13,5.19a48.81,48.81,0,0,1-3.44,4.74,26.91,26.91,0,0,1-1.84,2.09,1.19,1.19,0,0,1-1.08.15,18.71,18.71,0,0,1-2.42-.82,83.32,83.32,0,0,1-10.64-5.89l-3.69,4a49.79,49.79,0,0,0,4.67,5.05,39.9,39.9,0,0,0,5.55,4.42,22.31,22.31,0,0,0,3.48,1.88,12.4,12.4,0,0,0,4.93,1.06,8.42,8.42,0,0,0,3.56-.82,8.22,8.22,0,0,0,1.72-1.12l.72-.61c.94-.83,1.84-1.68,2.67-2.56a65.9,65.9,0,0,0,8.39-11.23c1.17-2,2.29-3.95,3.3-6,.51-1,1-2,1.49-3.06s.91-2,1.39-3.22Z" style="fill: rgb(181, 91, 82); transform-origin: 385.455px 287.825px;" id="ell89zyq1gste" class="animable"></path><path d="M369.35,289.66l-3.62-7.58-6,4.19s1.79,5.65,6.67,6Z" style="fill: rgb(181, 91, 82); transform-origin: 364.54px 287.175px;" id="elegksp3bkn6w" class="animable"></path><polygon points="362.81 280.26 357.18 282.73 359.7 286.27 365.73 282.08 362.81 280.26" style="fill: rgb(181, 91, 82); transform-origin: 361.455px 283.265px;" id="eliacjm64h33p" class="animable"></polygon><path d="M401.11,291l-12.94-8.46s-.21-.74,4.57-9.88c5.56-10.64,12.26-10.55,16.38-4.1C413.35,275.18,406.41,282.51,401.11,291Z" style="fill: rgb(0, 0, 139); transform-origin: 399.298px 277.556px;" id="el2f93xkb6b9a" class="animable"></path><path d="M457,420.35h0a.91.91,0,0,0,.37-1.24l-35.34-65a.91.91,0,0,0-1.24-.36h0a.9.9,0,0,0-.37,1.23l35.35,65A.9.9,0,0,0,457,420.35Z" style="fill: rgb(0, 0, 139); transform-origin: 438.895px 387.049px;" id="elruhm17g5lxl" class="animable"></path><g id="el6qc2tmt6vch"><g style="opacity: 0.2; transform-origin: 438.895px 387.049px;" class="animable"><path d="M457,420.35h0a.91.91,0,0,0,.37-1.24l-35.34-65a.91.91,0,0,0-1.24-.36h0a.9.9,0,0,0-.37,1.23l35.35,65A.9.9,0,0,0,457,420.35Z" id="elavhkz7uxycj" class="animable" style="transform-origin: 438.895px 387.049px;"></path></g></g><g id="elamq9h8f6jxp"><polygon points="439.9 390.86 436.79 385.12 437.83 383.2 440.94 388.94 439.9 390.86" style="opacity: 0.2; transform-origin: 438.865px 387.03px;" class="animable"></polygon></g><path d="M406.46,420.35h0a.91.91,0,0,0,.37-1.24l-35.34-65a.91.91,0,0,0-1.24-.36h0a.9.9,0,0,0-.37,1.23l35.35,65A.9.9,0,0,0,406.46,420.35Z" style="fill: rgb(0, 0, 139); transform-origin: 388.355px 387.049px;" id="el8lxdocfjekc" class="animable"></path><g id="elpj5030uww8"><g style="opacity: 0.2; transform-origin: 388.355px 387.049px;" class="animable"><path d="M406.46,420.35h0a.91.91,0,0,0,.37-1.24l-35.34-65a.91.91,0,0,0-1.24-.36h0a.9.9,0,0,0-.37,1.23l35.35,65A.9.9,0,0,0,406.46,420.35Z" id="el2xey7l2buzq" class="animable" style="transform-origin: 388.355px 387.049px;"></path></g></g><g id="el67dsu3w5hu5"><polygon points="389.4 390.86 386.28 385.12 387.32 383.2 390.44 388.94 389.4 390.86" style="opacity: 0.2; transform-origin: 388.36px 387.03px;" class="animable"></polygon></g><path d="M371.49,420l35.34-65a.9.9,0,0,0-.37-1.23h0a.9.9,0,0,0-1.23.36l-35.35,65a.91.91,0,0,0,.37,1.24h0A.91.91,0,0,0,371.49,420Z" style="fill: rgb(0, 0, 139); transform-origin: 388.355px 387.069px;" id="elpk5a44v0zxh" class="animable"></path><g id="el9fvrdwtc0ac"><g style="opacity: 0.2; transform-origin: 388.355px 387.069px;" class="animable"><path d="M371.49,420l35.34-65a.9.9,0,0,0-.37-1.23h0a.9.9,0,0,0-1.23.36l-35.35,65a.91.91,0,0,0,.37,1.24h0A.91.91,0,0,0,371.49,420Z" id="eltz8iz8yq3as" class="animable" style="transform-origin: 388.355px 387.069px;"></path></g></g><path d="M422,420l35.34-65a.9.9,0,0,0-.37-1.23h0a.9.9,0,0,0-1.23.36l-35.35,65a.91.91,0,0,0,.37,1.24h0A.91.91,0,0,0,422,420Z" style="fill: rgb(0, 0, 139); transform-origin: 438.865px 387.069px;" id="elc1bt5saren" class="animable"></path><g id="el5zud8jtklsl"><g style="opacity: 0.2; transform-origin: 438.865px 387.069px;" class="animable"><path d="M422,420l35.34-65a.9.9,0,0,0-.37-1.23h0a.9.9,0,0,0-1.23.36l-35.35,65a.91.91,0,0,0,.37,1.24h0A.91.91,0,0,0,422,420Z" id="elltyemrh8usj" class="animable" style="transform-origin: 438.865px 387.069px;"></path></g></g><path d="M414.52,350.82h-41a4.71,4.71,0,0,0-4.71,4.71h45.76Z" style="fill: rgb(0, 0, 139); transform-origin: 391.69px 353.175px;" id="elscws6rpqf2d" class="animable"></path><path d="M443.65,290.53h0c14.43,0,24.7,10.75,24,25.07L466,346.91a9.1,9.1,0,0,1-9.09,8.62h-58l12-39.93C415.16,301.28,429.22,290.53,443.65,290.53Z" style="fill: rgb(0, 0, 139); transform-origin: 433.297px 323.03px;" id="elapey72nzxu" class="animable"></path><g id="elzh8fnxk81e"><path d="M443.65,290.53h0c14.43,0,24.7,10.75,24,25.07L466,346.91a9.1,9.1,0,0,1-9.09,8.62h-58l12-39.93C415.16,301.28,429.22,290.53,443.65,290.53Z" style="fill: rgb(255, 255, 255); opacity: 0.3; transform-origin: 433.297px 323.03px;" class="animable"></path></g></g><g id="freepik--character-2--inject-62" class="animable" style="transform-origin: 298.879px 327.718px;"><path d="M320.35,266.31c1,3.54,1.24,7.33-3.84,8.7,0,0-4.74,6.68.95,11.15a43.12,43.12,0,0,1,13.34-11.58c-3.3-2.95-2.66-11.39-1.9-16Z" style="fill: rgb(206, 122, 99); transform-origin: 322.729px 272.37px;" id="elwl4mnwj1ig" class="animable"></path><path d="M314.05,248c-.39-.1-.87.26-1.06.85s0,1.2.36,1.3.87-.26,1.06-.85S314.43,248.06,314.05,248Z" style="fill: rgb(46, 53, 58); transform-origin: 313.702px 249.075px;" id="eld7onryzswcj" class="animable"></path><path d="M312.92,247.18l1.29.87C313.29,248.54,312.92,247.18,312.92,247.18Z" style="fill: rgb(46, 53, 58); transform-origin: 313.565px 247.668px;" id="elkyc59u9qd2" class="animable"></path><path d="M312.66,254.35a2.64,2.64,0,0,1-2-1.08,16.65,16.65,0,0,0,3.34-3.1Z" style="fill: rgb(186, 77, 60); transform-origin: 312.33px 252.26px;" id="el1jv1epe9bxp" class="animable"></path><path d="M315.45,244.08a2.88,2.88,0,0,1,1.25,2.34h0a.35.35,0,0,0,.35.36h0a.36.36,0,0,0,.36-.35,3.6,3.6,0,0,0-1.55-3,.37.37,0,0,0-.51.07.38.38,0,0,0,0,.36A.3.3,0,0,0,315.45,244.08Z" style="fill: rgb(46, 53, 58); transform-origin: 316.357px 245.069px;" id="eldypkf91mtfi" class="animable"></path><path d="M336.14,248.34a10.42,10.42,0,0,0-11.27-9.49c-8.08.61-12.56,11.11-13.1,18.16-.6,7.83,7.55,12.84,14.9,9,4.93-2.56,5.88-5.64,8.72-12.78A10.3,10.3,0,0,0,336.14,248.34Z" style="fill: rgb(206, 122, 99); transform-origin: 323.96px 253.071px;" id="elc4dpx3mdrck" class="animable"></path><path d="M340.08,257.61c10.58-13.36-2.41-17.2-2.41-17.2-4.07-5.65-10.79-6.8-16.95-4.44s-4.32,6.48-2.08,6.89c-4.2,5.55-1.79,8.31-.41,8.71C316.06,265.53,329.5,271,340.08,257.61Z" style="fill: rgb(38, 50, 56); transform-origin: 330.255px 250.052px;" id="elpoyqr0wew9" class="animable"></path><path d="M321.66,252a2.71,2.71,0,0,0-2.37-3c-2-.21-3.62,2.23-4.07,4-.5,1.93.58,3.72,2.59,3.08a6,6,0,0,0,3.49-3A2.73,2.73,0,0,0,321.66,252Z" style="fill: rgb(206, 122, 99); transform-origin: 318.388px 252.6px;" id="elh0v6yppxf6p" class="animable"></path><path d="M332.76,275.6a4.5,4.5,0,0,1-2-3.87s-14.81-2.16-17.89,1.18c0,0,4.45-.23,2.68,3.44Z" style="fill: rgb(0, 0, 139); transform-origin: 322.815px 273.697px;" id="el736um7vtfkl" class="animable"></path><g id="eln5vgzcozm2r"><path d="M332.76,275.6a4.5,4.5,0,0,1-2-3.87s-14.81-2.16-17.89,1.18c0,0,4.45-.23,2.68,3.44Z" style="fill: rgb(255, 255, 255); opacity: 0.6; transform-origin: 322.815px 273.697px;" class="animable"></path></g><path d="M317.43,319.22l-.09,3.82a97.22,97.22,0,0,0,14,.68,39.45,39.45,0,0,0,7.35-.79,14.49,14.49,0,0,0,2.1-.64,8,8,0,0,0,1.22-.58,5.89,5.89,0,0,0,1.48-1.15,5.17,5.17,0,0,0,.78-1.13,7,7,0,0,0,.31-.75,7.37,7.37,0,0,0,.13-.82l.13-.88.27-1.75c.52-4.66.79-9.24,1-13.83s.32-9.16.3-13.77l-7.81,0-.22,13.57c-.11,4.52-.2,9-.43,13.46l-.1,1.47a6.58,6.58,0,0,1-.87.35,42.74,42.74,0,0,1-6.15,1.27C326.43,318.42,321.9,318.81,317.43,319.22Z" style="fill: rgb(206, 122, 99); transform-origin: 331.876px 305.689px;" id="elxlrftmeokj" class="animable"></path><path d="M331.88,285.16c0,4.72,2.84,13.56,2.84,13.56l11.72-7.21c.52-6.05-.73-13.83-6.54-15.72C336,274.51,331.92,280.13,331.88,285.16Z" style="fill: rgb(38, 50, 56); transform-origin: 339.214px 287.163px;" id="elf0g9f31bo1p" class="animable"></path><g id="elglrcy9pesdj"><path d="M340.3,281.76l2.69,2.66.52,8.9-8.79,5.4s-2.84-8.84-2.84-13.56a11.27,11.27,0,0,1,.66-3.6l4-1.22Z" style="opacity: 0.6; transform-origin: 337.695px 289.53px;" class="animable"></path></g><path d="M306.66,321.35a1.5,1.5,0,0,1,.8-2l3.32-1.41a3.55,3.55,0,0,1,2.25-.16l7.25,2,.89,2.44c-1.13,2.81-5.92,2.28-5.92,2.28l-3.45,1.05a2.26,2.26,0,0,1-2.43-.74l-2.51-3.11A1.45,1.45,0,0,1,306.66,321.35Z" style="fill: rgb(206, 122, 99); transform-origin: 313.85px 321.66px;" id="eloofll6t6zu" class="animable"></path><path d="M311.94,275.67c1.51-.25,3.08-.49,4.62-.68a100.63,100.63,0,0,1,14.21-.43c2.33.05,4.62.22,6.63.43l.16,0a6.63,6.63,0,0,1,5.7,7.45c-2.84,20.27-4.08,28.9-3.25,40.49l-31.38.95C305,305,303.48,293.73,303,287.1A10.77,10.77,0,0,1,311.94,275.67Z" style="fill: rgb(38, 50, 56); transform-origin: 323.144px 299.179px;" id="elnjr6vwxpsg" class="animable"></path><polygon points="275.52 392.01 268.11 391.31 263.12 409.56 270.53 410.26 275.52 392.01" style="fill: rgb(206, 122, 99); transform-origin: 269.32px 400.785px;" id="elbd88un3i0m" class="animable"></polygon><polygon points="252.62 375.61 246.34 369.66 237.94 382.42 242.96 386.78 252.62 375.61" style="fill: rgb(206, 122, 99); transform-origin: 245.28px 378.22px;" id="elbvkobpvr8t5" class="animable"></polygon><path d="M337,323.19a3.32,3.32,0,0,1,3.25,2.5c4.24,16.54-.55,26.53-12.26,26.53-11,0-40.92-9.8-50.33-12.85-7.88,22.77-30.62,43.15-30.62,43.15l-6-5.48s13.25-25.52,22.4-48.18c5.26-13,56.06-5.5,56.06-5.5S329.67,323.19,337,323.19Z" style="fill: rgb(0, 0, 139); transform-origin: 291.406px 351.864px;" id="elsbkjw9vf63n" class="animable"></path><g id="elxnxklsxtru"><path d="M337,323.19a3.32,3.32,0,0,1,3.25,2.5c4.24,16.54-.55,26.53-12.26,26.53-11,0-40.92-9.8-50.33-12.85-7.88,22.77-30.62,43.15-30.62,43.15l-6-5.48s13.25-25.52,22.4-48.18c5.26-13,56.06-5.5,56.06-5.5S329.67,323.19,337,323.19Z" style="fill: rgb(255, 255, 255); isolation: isolate; opacity: 0.6; transform-origin: 291.406px 351.864px;" class="animable"></path></g><path d="M329.37,322.93c11.92,15.75,11,29.25-1.34,29.25-11,0-24.66.64-39.52-.3-3.27,23.9-15.72,51.75-15.72,51.75l-8.21-.77s7.49-34.94,8.07-59.38C273,328.71,314.7,330,314.7,330S322.05,323,329.37,322.93Z" style="fill: rgb(0, 0, 139); transform-origin: 301.199px 363.28px;" id="elzzbmzbf6v9n" class="animable"></path><g id="elsulkx8ubci"><path d="M329.37,322.93c11.92,15.75,11,29.25-1.34,29.25-11,0-24.66.64-39.52-.3-3.27,23.9-15.72,51.75-15.72,51.75l-8.21-.77s7.49-34.94,8.07-59.38C273,328.71,314.7,330,314.7,330S322.05,323,329.37,322.93Z" style="fill: rgb(255, 255, 255); isolation: isolate; opacity: 0.6; transform-origin: 301.199px 363.28px;" class="animable"></path></g><path d="M339.9,320.84l-31.78,1c-.31,0-.52.18-.52.37L308,325c0,.17.27.29.55.29l32.29-.95c.37,0,.62-.23.5-.45l-.89-2.79A.53.53,0,0,0,339.9,320.84Z" style="fill: rgb(38, 50, 56); transform-origin: 324.485px 323.061px;" id="elb1pefngvo5" class="animable"></path><path d="M282.69,308.51a73.3,73.3,0,0,0,9.54,5.19,40,40,0,0,0,5.33,2,14.35,14.35,0,0,0,3.31.57,6.89,6.89,0,0,0,2.51-.32,5,5,0,0,0,1.84-1.12,4.14,4.14,0,0,0,.44-.5l.2-.28.14-.21.19-.34a35.19,35.19,0,0,0,4.07-11,52.34,52.34,0,0,0,.84-5.57c.08-1,.15-1.87.2-2.81s.06-1.83,0-2.88l-7.78.11c0,.68-.05,1.57-.09,2.37s-.1,1.64-.18,2.46c-.15,1.64-.35,3.27-.6,4.9a46.54,46.54,0,0,1-1.05,4.68,26,26,0,0,1-1.33,3.64,8.43,8.43,0,0,1-1.32-.13,42.88,42.88,0,0,1-4.74-1.11c-3.25-.93-6.58-2-9.86-3.12Z" style="fill: rgb(206, 122, 99); transform-origin: 297.016px 303.761px;" id="ely4d8ttun5h" class="animable"></path><path d="M315.56,285.12c2.33,3.59-3.09,12.82-3.09,12.82l-9.77-1.1s-2-12.29,2.78-17.34C308.05,276.79,313.13,281.38,315.56,285.12Z" style="fill: rgb(38, 50, 56); transform-origin: 309.213px 288.312px;" id="elin2bcvznz3" class="animable"></path><path d="M276.13,306.1h0a.46.46,0,0,1-.29-.58L281,290.16a.47.47,0,0,1,.58-.29h0a.45.45,0,0,1,.29.57l-5.13,15.36a.49.49,0,0,1-.36.31A.58.58,0,0,1,276.13,306.1Z" style="fill: rgb(46, 53, 58); transform-origin: 278.855px 297.984px;" id="el5l75d0e03a" class="animable"></path><path d="M277.69,297.43a1.62,1.62,0,0,0-1.75,1.48l-.44,4.26a1.63,1.63,0,0,0,.85,1.6l3.59,1.89s6.15,5.8,8.79,4.34l-1.9-4.14-3.72-6.41a3.8,3.8,0,0,0-1.84-1.63l-3.08-1.27A1.74,1.74,0,0,0,277.69,297.43Z" style="fill: rgb(206, 122, 99); transform-origin: 282.111px 304.33px;" id="eluizyj74qwg8" class="animable"></path><path d="M237.84,379.6c-2.5-.2-6.13-2.11-8.4-4.09-1.74-1.54-3.74.23-2,2.61s5.52,5.75,7,7.31c2.38,2.5,2.82,3.73,4.8,5.61A1.25,1.25,0,0,0,241,391l3.92-4.84a.51.51,0,0,0-.06-.71L239,380.09A2,2,0,0,0,237.84,379.6Z" style="fill: rgb(0, 0, 139); transform-origin: 235.903px 383.158px;" id="elkqc20vyt80r" class="animable"></path><path d="M262.5,409.1c-1.76,1.79-4.76,4.33-7.69,5.06-1.88.46-3,3.48.54,3.13s7.36-1.08,9.46-1.36c3.43-.45,4.61-.26,7.33-.53h0a1.23,1.23,0,0,0,1.05-1.4L272,407.89a.52.52,0,0,0-.58-.41l-7.79,1A1.92,1.92,0,0,0,262.5,409.1Z" style="fill: rgb(0, 0, 139); transform-origin: 263.123px 412.397px;" id="elclqqv4ciujq" class="animable"></path><path d="M360.33,420.51h0a.91.91,0,0,0,.36-1.24l-35.34-65a.92.92,0,0,0-1.24-.36h0a.92.92,0,0,0-.37,1.24l35.35,65A.92.92,0,0,0,360.33,420.51Z" style="fill: rgb(0, 0, 139); transform-origin: 342.218px 387.21px;" id="elq5jx6o5pii" class="animable"></path><g id="eljf0enbg6pg"><g style="opacity: 0.2; transform-origin: 342.218px 387.21px;" class="animable"><path d="M360.33,420.51h0a.91.91,0,0,0,.36-1.24l-35.34-65a.92.92,0,0,0-1.24-.36h0a.92.92,0,0,0-.37,1.24l35.35,65A.92.92,0,0,0,360.33,420.51Z" id="el0d9u1gdar2ac" class="animable" style="transform-origin: 342.218px 387.21px;"></path></g></g><g id="el1f85kxc9qup"><polygon points="343.26 391.02 340.14 385.28 341.18 383.36 344.3 389.1 343.26 391.02" style="opacity: 0.2; transform-origin: 342.22px 387.19px;" class="animable"></polygon></g><path d="M309.82,420.51h0a.92.92,0,0,0,.37-1.24l-35.35-65a.92.92,0,0,0-1.24-.36h0a.92.92,0,0,0-.37,1.24l35.35,65A.92.92,0,0,0,309.82,420.51Z" style="fill: rgb(0, 0, 139); transform-origin: 291.71px 387.21px;" id="eloqei9agvpj" class="animable"></path><g id="el6df1nixwn2"><g style="opacity: 0.2; transform-origin: 291.71px 387.21px;" class="animable"><path d="M309.82,420.51h0a.92.92,0,0,0,.37-1.24l-35.35-65a.92.92,0,0,0-1.24-.36h0a.92.92,0,0,0-.37,1.24l35.35,65A.92.92,0,0,0,309.82,420.51Z" id="elku2805fdn6o" class="animable" style="transform-origin: 291.71px 387.21px;"></path></g></g><g id="elc2rfw0ds09i"><polygon points="292.75 391.02 289.63 385.28 290.67 383.36 293.79 389.1 292.75 391.02" style="opacity: 0.2; transform-origin: 291.71px 387.19px;" class="animable"></polygon></g><path d="M274.84,420.15l35.35-65a.92.92,0,0,0-.37-1.24h0a.92.92,0,0,0-1.24.36l-35.35,65a.92.92,0,0,0,.37,1.24h0A.92.92,0,0,0,274.84,420.15Z" style="fill: rgb(0, 0, 139); transform-origin: 291.71px 387.21px;" id="elh4p4l72al5w" class="animable"></path><g id="eled0bl1is6rs"><g style="opacity: 0.2; transform-origin: 291.71px 387.21px;" class="animable"><path d="M274.84,420.15l35.35-65a.92.92,0,0,0-.37-1.24h0a.92.92,0,0,0-1.24.36l-35.35,65a.92.92,0,0,0,.37,1.24h0A.92.92,0,0,0,274.84,420.15Z" id="elfyyb40d4qde" class="animable" style="transform-origin: 291.71px 387.21px;"></path></g></g><path d="M325.35,420.15l35.34-65a.91.91,0,0,0-.36-1.24h0a.92.92,0,0,0-1.24.36l-35.35,65a.92.92,0,0,0,.37,1.24h0A.92.92,0,0,0,325.35,420.15Z" style="fill: rgb(0, 0, 139); transform-origin: 342.218px 387.21px;" id="elqwiv1tzcxk" class="animable"></path><g id="el9rg88g7whnl"><g style="opacity: 0.2; transform-origin: 342.218px 387.21px;" class="animable"><path d="M325.35,420.15l35.34-65a.91.91,0,0,0-.36-1.24h0a.92.92,0,0,0-1.24.36l-35.35,65a.92.92,0,0,0,.37,1.24h0A.92.92,0,0,0,325.35,420.15Z" id="elyku20to2lv" class="animable" style="transform-origin: 342.218px 387.21px;"></path></g></g><path d="M317.87,351h-41a4.71,4.71,0,0,0-4.72,4.71h45.76Z" style="fill: rgb(0, 0, 139); transform-origin: 295.03px 353.355px;" id="elgptouxobd18" class="animable"></path><path d="M347,290.69h0c14.43,0,24.7,10.75,23.95,25.07l-1.65,31.32a9.09,9.09,0,0,1-9.09,8.61h-58l12-39.93C318.51,301.44,332.58,290.69,347,290.69Z" style="fill: rgb(0, 0, 139); transform-origin: 336.599px 323.19px;" id="elx6wdpdxwhgo" class="animable"></path><g id="el8azys5cq6jf"><path d="M347,290.69h0c14.43,0,24.7,10.75,23.95,25.07l-1.65,31.32a9.09,9.09,0,0,1-9.09,8.61h-58l12-39.93C318.51,301.44,332.58,290.69,347,290.69Z" style="fill: rgb(255, 255, 255); opacity: 0.3; transform-origin: 336.599px 323.19px;" class="animable"></path></g></g><defs>     <filter id="active" height="200%">         <feMorphology in="SourceAlpha" result="DILATED" operator="dilate" radius="2"></feMorphology>                <feFlood flood-color="#32DFEC" flood-opacity="1" result="PINK"></feFlood>        <feComposite in="PINK" in2="DILATED" operator="in" result="OUTLINE"></feComposite>        <feMerge>            <feMergeNode in="OUTLINE"></feMergeNode>            <feMergeNode in="SourceGraphic"></feMergeNode>        </feMerge>    </filter>    <filter id="hover" height="200%">        <feMorphology in="SourceAlpha" result="DILATED" operator="dilate" radius="2"></feMorphology>                <feFlood flood-color="#ff0000" flood-opacity="0.5" result="PINK"></feFlood>        <feComposite in="PINK" in2="DILATED" operator="in" result="OUTLINE"></feComposite>        <feMerge>            <feMergeNode in="OUTLINE"></feMergeNode>            <feMergeNode in="SourceGraphic"></feMergeNode>        </feMerge>            <feColorMatrix type="matrix" values="0   0   0   0   0                0   1   0   0   0                0   0   0   0   0                0   0   0   1   0 "></feColorMatrix>    </filter></defs></svg>